<svg width="34" height="34" viewBox="0 0 34 34" fill="none" xmlns="http://www.w3.org/2000/svg">
<g clip-path="url(#clip0_94_132)">
<path d="M33.4612 6.92291C32.2903 7.44174 31.0325 7.7923 29.7102 7.95075C31.0746 7.13436 32.0953 5.84944 32.582 4.33576C31.3001 5.09717 29.8972 5.63311 28.4341 5.9203C27.4503 4.86983 26.1472 4.17356 24.7271 3.93959C23.3069 3.70562 21.8493 3.94705 20.5805 4.62638C19.3116 5.30572 18.3026 6.38495 17.71 7.69653C17.1173 9.00811 16.9743 10.4787 17.3031 11.8799C14.7057 11.7494 12.1647 11.0743 9.84514 9.89834C7.52554 8.72236 5.47913 7.07177 3.83872 5.05371C3.27782 6.02126 2.9553 7.14306 2.9553 8.33777C2.95468 9.41329 3.21953 10.4723 3.72637 11.4209C4.23321 12.3695 4.96635 13.1784 5.86076 13.7757C4.82348 13.7427 3.80909 13.4624 2.90202 12.9582V13.0423C2.90191 14.5508 3.4237 16.0128 4.37884 17.1803C5.33398 18.3479 6.66365 19.149 8.14222 19.4478C7.17997 19.7082 6.17113 19.7466 5.19189 19.56C5.60905 20.8579 6.42165 21.9929 7.51593 22.8061C8.6102 23.6192 9.93137 24.0698 11.2945 24.0948C8.98053 25.9113 6.12282 26.8966 3.18106 26.8923C2.65996 26.8925 2.1393 26.862 1.62177 26.8012C4.60782 28.7211 8.0838 29.74 11.6338 29.7361C23.6511 29.7361 30.2206 19.7829 30.2206 11.1507C30.2206 10.8702 30.2136 10.587 30.201 10.3065C31.4788 9.38241 32.5819 8.23807 33.4584 6.92711L33.4612 6.92291Z" fill="#F8F8F8"/>
</g>
<defs>
<clipPath id="clip0_94_132">
<rect width="33.6539" height="33.6539" fill="white" transform="translate(0.307861)"/>
</clipPath>
</defs>
</svg>
