<svg width="34" height="34" viewBox="0 0 34 34" fill="none" xmlns="http://www.w3.org/2000/svg">
<path fill-rule="evenodd" clip-rule="evenodd" d="M10.4678 1.49477C12.1126 1.41905 12.637 1.40222 16.8269 1.40222C21.0169 1.40222 21.5413 1.42045 23.1847 1.49477C24.8282 1.56909 25.95 1.83131 26.9315 2.21132C27.9594 2.59974 28.8919 3.20691 29.6631 3.99217C30.4484 4.76201 31.0542 5.6931 31.4412 6.72235C31.8226 7.70392 32.0834 8.82572 32.1591 10.4664C32.2348 12.114 32.2517 12.6384 32.2517 16.8269C32.2517 21.0169 32.2334 21.5413 32.1591 23.1861C32.0848 24.8268 31.8226 25.9486 31.4412 26.9301C31.0541 27.9595 30.4474 28.8922 29.6631 29.6631C28.8919 30.4484 27.9594 31.0542 26.9315 31.4412C25.95 31.8226 24.8282 32.0834 23.1875 32.1591C21.5413 32.2348 21.0169 32.2517 16.8269 32.2517C12.637 32.2517 12.1126 32.2334 10.4678 32.1591C8.82712 32.0848 7.70533 31.8226 6.72375 31.4412C5.69439 31.0541 4.76176 30.4473 3.99077 29.6631C3.20605 28.8928 2.59878 27.9606 2.21132 26.9315C1.83131 25.95 1.57049 24.8282 1.49477 23.1875C1.41905 21.5399 1.40222 21.0155 1.40222 16.8269C1.40222 12.637 1.42045 12.1126 1.49477 10.4692C1.56909 8.82572 1.83131 7.70392 2.21132 6.72235C2.59935 5.69321 3.20708 4.76104 3.99217 3.99077C4.76206 3.20622 5.69376 2.59896 6.72235 2.21132C7.70392 1.83131 8.82572 1.57049 10.4664 1.49477H10.4678ZM23.0599 4.27122C21.4333 4.1969 20.9454 4.18148 16.8269 4.18148C12.7085 4.18148 12.2206 4.1969 10.594 4.27122C9.08934 4.33993 8.27324 4.59093 7.72916 4.80267C7.00981 5.08312 6.49519 5.41546 5.95532 5.95532C5.44356 6.45319 5.04972 7.05929 4.80267 7.72916C4.59093 8.27324 4.33993 9.08934 4.27122 10.594C4.1969 12.2206 4.18148 12.7085 4.18148 16.8269C4.18148 20.9454 4.1969 21.4333 4.27122 23.0599C4.33993 24.5646 4.59093 25.3807 4.80267 25.9247C5.04947 26.5936 5.4435 27.2008 5.95532 27.6986C6.45312 28.2104 7.06029 28.6044 7.72916 28.8512C8.27324 29.063 9.08934 29.314 10.594 29.3827C12.2206 29.457 12.7071 29.4724 16.8269 29.4724C20.9468 29.4724 21.4333 29.457 23.0599 29.3827C24.5646 29.314 25.3807 29.063 25.9247 28.8512C26.6441 28.5708 27.1587 28.2384 27.6986 27.6986C28.2104 27.2008 28.6044 26.5936 28.8512 25.9247C29.063 25.3807 29.314 24.5646 29.3827 23.0599C29.457 21.4333 29.4724 20.9454 29.4724 16.8269C29.4724 12.7085 29.457 12.2206 29.3827 10.594C29.314 9.08934 29.063 8.27324 28.8512 7.72916C28.5708 7.00981 28.2384 6.49519 27.6986 5.95532C27.2007 5.4436 26.5946 5.04976 25.9247 4.80267C25.3807 4.59093 24.5646 4.33993 23.0599 4.27122ZM14.8568 21.582C15.9571 22.04 17.1822 22.1018 18.323 21.7569C19.4638 21.4119 20.4495 20.6816 21.1117 19.6907C21.7738 18.6997 22.0714 17.5097 21.9536 16.3237C21.8358 15.1377 21.3099 14.0294 20.4658 13.1881C19.9277 12.6503 19.277 12.2385 18.5606 11.9824C17.8442 11.7262 17.08 11.6321 16.3228 11.7068C15.5657 11.7815 14.8346 12.0231 14.182 12.4143C13.5295 12.8054 12.9718 13.3364 12.5491 13.969C12.1264 14.6015 11.8492 15.3199 11.7375 16.0725C11.6258 16.825 11.6823 17.593 11.903 18.3211C12.1237 19.0491 12.5031 19.7192 13.0138 20.2831C13.5246 20.847 14.154 21.2906 14.8568 21.582ZM11.2208 11.2208C11.957 10.4845 12.831 9.90055 13.7929 9.50211C14.7548 9.10368 15.7858 8.8986 16.8269 8.8986C17.8681 8.8986 18.8991 9.10367 19.861 9.50211C20.8229 9.90055 21.6969 10.4845 22.4331 11.2208C23.1694 11.957 23.7533 12.831 24.1518 13.7929C24.5502 14.7548 24.7553 15.7858 24.7553 16.8269C24.7553 17.8681 24.5502 18.8991 24.1518 19.861C23.7533 20.8229 23.1694 21.6969 22.4331 22.4331C20.9463 23.92 18.9297 24.7553 16.8269 24.7553C14.7242 24.7553 12.7076 23.92 11.2208 22.4331C9.73391 20.9463 8.8986 18.9297 8.8986 16.8269C8.8986 14.7242 9.73391 12.7076 11.2208 11.2208ZM26.5137 10.0793C26.6961 9.90723 26.8422 9.70028 26.9432 9.47072C27.0442 9.24116 27.0981 8.99367 27.1018 8.74289C27.1055 8.49212 27.0588 8.24316 26.9645 8.01075C26.8702 7.77834 26.7302 7.56722 26.5529 7.38987C26.3755 7.21253 26.1644 7.07257 25.932 6.97829C25.6996 6.884 25.4506 6.8373 25.1999 6.84096C24.9491 6.84461 24.7016 6.89855 24.472 6.99957C24.2425 7.10059 24.0355 7.24664 23.8634 7.42908C23.5287 7.78389 23.3455 8.25518 23.3526 8.74289C23.3597 9.23061 23.5566 9.69635 23.9015 10.0413C24.2464 10.3862 24.7122 10.5831 25.1999 10.5902C25.6876 10.5973 26.1589 10.414 26.5137 10.0793Z" fill="#F8F8F8"/>
</svg>
